# File created by Blade
# Date/Time:  Mon Nov 18 17:26:10 2013
# Frame Rate: 100.000 fps
#------------------------------------------------------
:FULLY-SPECIFIED
:DEGREES
76
root -42.544348 -2.823751 41.774584 5.896760 1.020049 23.553288
Spine 20.556578 -0.665186 0.694882
Spine1 7.513571 -0.046071 2.051706
Spine2 -22.175739 -1.182725 -0.855494
NeckDummy -0.079133 0.324406 0.909688 13.888432 -0.149480 -0.973538
Neck 5.332702 -11.906651 42.808265
Head -0.187141 -0.160674 -0.068749 -0.250231 -2.969180 -0.681058
LeftShoulderDummy -0.105147 0.314057 0.917341 13.893420 -0.251258 -0.819932
LeftShoulder 6.951736 -8.188598 19.041675
LeftArm 9.547994 40.926385 19.773509
LeftForeArm 47.063871
LeftForeArmRoll 23.648779
LeftHand -35.711727 -25.563477 9.718572
LeftHandThumb1 17.738800 2.772775
LeftHandIndex1 -2.377981 40.807057
LeftHandPinky1 -1.168126 60.342880
RightShoulderDummy -0.083057 0.351450 0.895238 13.873849 0.159807 1.002957
RightShoulder 9.450943 2.497011 10.908827
RightArm 0.330201 57.707529 21.298903
RightForeArm 97.860324
RightForeArmRoll 18.514287
RightHand -46.611880 -27.085461 9.653255
RightHandThumb1 11.415260 9.822836
RightHandIndex1 -0.987330 35.336373
RightHandPinky1 6.724951 60.304809
LeftUpLeg -4.371054 24.123058 -44.295518
LeftLeg 61.875296
LeftFoot 0.047269 -0.864242 -1.720637 -18.383379 3.353609 -5.965781
LeftToeBase -4.791928
RightUpLeg -8.060611 16.223182 -30.921780
RightLeg 52.695374
RightFoot -0.569517 0.742056 0.824336 -17.642568 11.943518 -21.833804
RightToeBase 0.455975
77
root -42.505871 -2.811628 41.751002 5.965026 1.093710 23.594209
Spine 20.580915 -0.732361 0.682182
Spine1 7.528349 -0.068832 1.981325
Spine2 -22.149071 -1.254510 -0.912325
NeckDummy -0.082339 0.317540 0.905957 13.911530 -0.112825 -1.049634
Neck 5.302882 -11.815089 42.731903
Head -0.186437 -0.162419 -0.066000 -0.268983 -2.974167 -0.702093
LeftShoulderDummy -0.109593 0.306372 0.913388 13.916714 -0.219784 -0.881746
LeftShoulder 7.126479 -8.166431 19.275154
LeftArm 9.514688 41.312247 19.660785
LeftForeArm 46.887051
LeftForeArmRoll 24.112683
LeftHand -36.082883 -26.005270 10.019229
LeftHandThumb1 17.645307 2.943827
LeftHandIndex1 -2.020334 40.721437
LeftHandPinky1 -0.605596 59.995771
RightShoulderDummy -0.087665 0.346493 0.892177 13.896274 0.126733 1.076068
RightShoulder 9.436391 2.530176 11.013825
RightArm -0.213174 57.392669 20.480184
RightForeArm 98.378129
RightForeArmRoll 18.949262
RightHand -46.571155 -26.766935 9.880168
RightHandThumb1 10.604591 9.055115
RightHandIndex1 -1.125733 34.066111
RightHandPinky1 6.616945 58.708734
LeftUpLeg -4.684560 24.108406 -44.178645
LeftLeg 60.339072
LeftFoot -0.017457 -0.880433 -1.681455 -17.538844 5.225716 -6.206669
LeftToeBase -4.763625
RightUpLeg -8.144481 16.352373 -30.929140
RightLeg 52.479689
RightFoot -0.544738 0.752986 0.854028 -16.932034 11.860735 -21.506995
RightToeBase -0.372887
78
root -42.454628 -2.799137 41.721881 6.031393 1.138967 23.669626
Spine 20.623943 -0.771228 0.668178
Spine1 7.540482 -0.071026 1.914472
Spine2 -22.140989 -1.336180 -1.001708
NeckDummy -0.084898 0.315153 0.904940 13.896491 -0.042818 -1.203802
Neck 5.218765 -11.652536 42.655282
Head -0.189342 -0.168808 -0.065175 -0.270134 -2.998016 -0.666121
LeftShoulderDummy -0.112206 0.301223 0.911136 13.901223 -0.149725 -1.043600
LeftShoulder 7.257722 -8.067295 19.477067
LeftArm 9.575856 41.678573 19.514479
LeftForeArm 46.750127
LeftForeArmRoll 23.840646
LeftHand -36.004187 -26.250896 10.425160
LeftHandThumb1 17.705360 3.014528
LeftHandIndex1 -2.229095 40.688307
LeftHandPinky1 -0.929201 60.207597
RightShoulderDummy -0.091451 0.347919 0.892167 13.879947 0.060403 1.231947
RightShoulder 9.529593 2.440920 11.153666
RightArm -0.701305 57.019350 19.763727
RightForeArm 98.889634
RightForeArmRoll 19.463173
RightHand -46.465989 -26.377483 10.243764
RightHandThumb1 10.517321 9.065308
RightHandIndex1 -1.273905 32.702873
RightHandPinky1 6.109435 57.039603
LeftUpLeg -5.071724 24.060986 -44.017657
LeftLeg 58.657296
LeftFoot -0.065127 -0.898492 -1.633299 -16.762667 7.102281 -6.374537
LeftToeBase -4.584380
RightUpLeg -8.105819 16.478750 -30.885212
RightLeg 52.369685
RightFoot -0.579301 0.747227 0.821681 -17.690202 12.023990 -21.736519
RightToeBase 0.506040
79
root -42.391407 -2.784871 41.689363 6.124301 1.170093 23.735727
Spine 20.624735 -0.816168 0.686958
Spine1 7.543410 -0.082930 1.910854
Spine2 -22.123571 -1.365296 -1.149001
NeckDummy -0.085047 0.313638 0.901825 13.916486 0.084976 -1.459333
Neck 5.048645 -11.401429 42.512750
Head -0.190634 -0.171357 -0.065529 -0.250075 -3.001664 -0.689404
LeftShoulderDummy -0.113183 0.294757 0.905915 13.921397 -0.024026 -1.298859
LeftShoulder 7.378005 -7.821868 19.576135
LeftArm 9.688651 42.100824 19.381771
LeftForeArm 46.624322
LeftForeArmRoll 23.885247
LeftHand -36.232809 -26.492009 10.906978
LeftHandThumb1 17.629484 3.095034
LeftHandIndex1 -2.284894 40.752901
LeftHandPinky1 -0.996322 60.278767
RightShoulderDummy -0.092866 0.351663 0.891361 13.899647 -0.063986 1.483057
RightShoulder 9.664561 2.213813 11.309750
RightArm -1.143026 56.594948 19.112483
RightForeArm 99.393560
RightForeArmRoll 19.890541
RightHand -46.435738 -26.014895 10.703336
RightHandThumb1 10.361731 8.664182
RightHandIndex1 -1.256552 31.288484
RightHandPinky1 5.680932 55.059110
LeftUpLeg -5.610213 23.929063 -43.782908
LeftLeg 56.801860
LeftFoot -0.128781 -0.906554 -1.575043 -15.956814 9.198935 -6.239890
LeftToeBase -4.516471
RightUpLeg -8.147583 16.598166 -30.833672
RightLeg 52.123684
RightFoot -0.579139 0.746976 0.817612 -17.655409 12.126948 -21.675933
RightToeBase 0.456478
80
root -42.318302 -2.770376 41.652982 6.240102 1.151498 23.776847
Spine 20.603868 -0.835065 0.696785
Spine1 7.539708 -0.103417 1.903019
Spine2 -22.085038 -1.399229 -1.248681
NeckDummy -0.086341 0.313203 0.900066 13.879554 0.168197 -1.601966
Neck 4.984801 -11.245729 42.413284
Head -0.197169 -0.172462 -0.057803 -0.355207 -3.029456 -0.734744
LeftShoulderDummy -0.115714 0.292402 0.903352 13.884331 0.054013 -1.432772
LeftShoulder 7.437843 -7.689630 19.725800
LeftArm 9.531804 42.492374 19.143716
LeftForeArm 46.468243
LeftForeArmRoll 24.109707
LeftHand -36.489958 -26.639637 11.509806
LeftHandThumb1 17.316630 3.276401
LeftHandIndex1 -2.124003 40.569176
LeftHandPinky1 -0.966945 60.113407
RightShoulderDummy -0.094870 0.354671 0.890913 13.861264 -0.145379 1.627018
RightShoulder 9.824116 2.094649 11.483142
RightArm -1.559353 56.193145 18.532173
RightForeArm 99.892422
RightForeArmRoll 19.789349
RightHand -46.288396 -25.781780 11.139451
RightHandThumb1 9.850642 8.015403
RightHandIndex1 -1.144589 30.203327
RightHandPinky1 5.429872 53.623928
LeftUpLeg -6.335691 23.770629 -43.521077
LeftLeg 54.867393
LeftFoot -0.187783 -0.933298 -1.511074 -15.063699 11.350580 -6.061686
LeftToeBase -4.261927
RightUpLeg -8.183629 16.678409 -30.785811
RightLeg 51.831799
RightFoot -0.557683 0.749490 0.834275 -17.316891 12.211110 -21.502985
RightToeBase 0.319689
